<?xml version="1.0" encoding="UTF-8"?>
<svg version="1.1" xmlns="http://www.w3.org/2000/svg" width="1024" height="400">
<path d="M0 0 C337.92 0 675.84 0 1024 0 C1024 132 1024 264 1024 400 C686.08 400 348.16 400 0 400 C0 268 0 136 0 0 Z " fill="#FBFBFC" transform="translate(0,0)"/>
<path d="M0 0 C1.19625 0.268125 2.3925 0.53625 3.625 0.8125 C22.89336028 5.55062138 38.82784007 14.23827741 53 28 C54.11955078 29.00933594 54.11955078 29.00933594 55.26171875 30.0390625 C74.66591156 48.12255108 84.06010288 75.29613749 85.22265625 101.28125 C86.01366969 129.22526161 77.75081403 157.45680193 58.5703125 178.28125 C57.72210938 179.1784375 56.87390625 180.075625 56 181 C55.35804688 181.7321875 54.71609375 182.464375 54.0546875 183.21875 C38.59766537 200.08095596 12.66244102 211.49907768 -10 213 C-42.80449809 214.3670847 -72.54719469 208.29695433 -97.44482422 185.68798828 C-116.64316091 167.96976749 -130.90294862 142.21677134 -132.10498047 115.68261719 C-133.06080076 84.49081709 -125.14343522 55.74125121 -103.703125 32.32421875 C-87.9733242 15.76118276 -69.09586812 5.35917943 -47 0 C-46.02160156 -0.24621094 -45.04320312 -0.49242187 -44.03515625 -0.74609375 C-30.07240608 -3.65082657 -13.85968807 -3.11135855 0 0 Z " fill="#116FC3" transform="translate(454,41)"/>
<path d="M0 0 C124.42517815 0 124.42517815 0 144.796875 18.64453125 C154.41360993 28.83133037 157.52936926 42.04735508 157.2421875 55.640625 C156.35535898 67.94179486 152.36445953 79.3988378 143.125 87.9375 C133.00735294 96 133.00735294 96 128 96 C128 96.66 128 97.32 128 98 C128.86109375 98.103125 129.7221875 98.20625 130.609375 98.3125 C141.65002604 100.55115735 152.25708273 108.52873151 158.84375 117.515625 C166.89288541 130.37845904 169.5455951 145.47650754 166.12890625 160.3515625 C162.02466184 175.42892329 153.76176439 187.38400951 140.1875 195.25 C125.30688031 203.5295768 110.26021013 206.17781053 93.43139648 206.11352539 C92.39944436 206.11364593 91.36749224 206.11376646 90.30426884 206.11389065 C86.99318787 206.11314954 83.68216454 206.10555813 80.37109375 206.09765625 C78.31514513 206.09618434 76.25919614 206.09516517 74.20324707 206.09460449 C66.61465897 206.08938043 59.02607891 206.07541916 51.4375 206.0625 C25.9759375 206.0315625 25.9759375 206.0315625 0 206 C0 138.02 0 70.04 0 0 Z " fill="#116FC3" transform="translate(140,44)"/>
<path d="M0 0 C5.01910471 4.17987129 10.19261825 8.71580213 13.8125 14.1875 C13.23428331 18.7571958 10.1865642 21.19320485 7.02734375 24.265625 C6.45166153 24.83706238 5.87597931 25.40849976 5.28285217 25.99725342 C3.44549681 27.81783802 1.59797868 29.62770568 -0.25 31.4375 C-1.49873138 32.67118253 -2.74678669 33.90554978 -3.99414062 35.140625 C-7.0508102 38.16424655 -10.11663526 41.17829921 -13.1875 44.1875 C-16.16864506 42.76668756 -18.04454803 41.46491691 -20.25 39 C-30.28402077 28.75248942 -43.99154565 23.20014739 -58.26660156 22.94604492 C-70.00450362 22.87402121 -70.00450362 22.87402121 -80.0625 28.625 C-84.02780713 33.4066939 -84.84894074 37.20256787 -84.66015625 43.375 C-83.7828058 48.59559772 -81.32836857 51.06900565 -77.1875 54.1875 C-74.84118651 55.38065123 -72.54542965 56.46366185 -70.12890625 57.48828125 C-69.08658592 57.93694298 -69.08658592 57.93694298 -68.02320862 58.39466858 C-58.56026711 62.39265528 -48.81892491 65.66621103 -39.1027832 68.98706055 C-19.37666756 75.75265287 1.13080003 84.00831322 11.8125 103.1875 C13.40919177 106.45643677 14.69621152 109.72644477 15.8125 113.1875 C16.03808594 113.86941406 16.26367188 114.55132812 16.49609375 115.25390625 C20.87015839 131.15136877 17.29173553 149.15074607 9.55859375 163.3828125 C-0.23702366 179.11715992 -14.65361439 189.33297121 -32.5625 194 C-60.6186476 200.52009064 -92.18045415 196.36013705 -117.2265625 182.0390625 C-126.26996698 176.38395205 -135.9225087 169.97376829 -142.1875 161.1875 C-140.53513349 156.89682454 -137.2969793 154.0445447 -134.0859375 150.890625 C-133.48947418 150.29699158 -132.89301086 149.70335815 -132.2784729 149.09173584 C-130.3778019 147.20223373 -128.47028526 145.31981608 -126.5625 143.4375 C-125.27037532 142.15540935 -123.97870324 140.87286239 -122.6875 139.58984375 C-119.52605521 136.45041568 -116.3584539 133.31732199 -113.1875 130.1875 C-109.76332212 132.20111891 -106.77039816 134.29431318 -103.75 136.875 C-87.61182367 149.87652781 -68.99053011 156.12021395 -48.1875 154.1875 C-42.52678054 152.8353727 -37.22268984 150.4672468 -33.1875 146.1875 C-30.16833846 140.87794005 -29.41052063 136.1625808 -30.1875 130.1875 C-32.18809047 124.1857286 -36.65007172 120.18505843 -42.08764648 117.11450195 C-44.1598111 116.14866471 -46.2493359 115.27910175 -48.375 114.4375 C-49.57866211 113.94334595 -49.57866211 113.94334595 -50.80664062 113.43920898 C-58.18038701 110.46723622 -65.6847905 107.87402818 -73.1875 105.25 C-104.4668977 94.27148696 -104.4668977 94.27148696 -115.1875 84.1875 C-116.5178125 82.95 -116.5178125 82.95 -117.875 81.6875 C-118.638125 80.8625 -119.40125 80.0375 -120.1875 79.1875 C-120.66832031 78.70023437 -121.14914062 78.21296875 -121.64453125 77.7109375 C-131.63771053 67.03468014 -133.87044864 53.47612588 -133.5625 39.41015625 C-132.72422885 23.05488741 -124.7484441 8.71510829 -113.00390625 -2.40625 C-82.68362882 -28.31095305 -30.05918267 -22.93746862 0 0 Z " fill="#116FC3" transform="translate(865.1875,57.8125)"/>
<path d="M0 0 C2.17041428 -0.00956867 4.33982291 -0.04055875 6.51000977 -0.07226562 C30.53359895 -0.25509563 52.47125226 6.83556044 70.40258789 23.24023438 C77.80922072 30.65995313 77.80922072 30.65995313 78.40258789 35.24023438 C76.46808228 37.62169671 74.57751731 39.64560419 72.37524414 41.75585938 C71.44088783 42.67960358 71.44088783 42.67960358 70.48765564 43.62200928 C68.49153575 45.59009619 66.47875308 47.54011823 64.46508789 49.49023438 C63.11044013 50.81981104 61.75690926 52.15052669 60.40454102 53.48242188 C57.08338194 56.74839321 53.74717262 59.99826364 50.40258789 63.24023438 C45.62084961 58.46191406 45.62084961 58.46191406 43.65649414 56.46679688 C32.15663609 45.57778578 17.05417341 40.75321457 1.4765625 40.8840332 C-6.107739 41.11935791 -12.15081436 42.63801955 -17.59741211 48.24023438 C-20.41035559 53.02223829 -20.87217427 56.57803478 -20.31225586 61.93164062 C-18.83716186 66.69546879 -16.48227691 69.66980886 -12.30444336 72.36303711 C-11.01588247 73.00707734 -9.71693988 73.63064224 -8.40991211 74.23632812 C-7.70793701 74.57369492 -7.00596191 74.91106171 -6.28271484 75.25865173 C1.40312281 78.8620542 9.36079264 81.61695046 17.40258789 84.30273438 C26.06185192 87.21641709 34.6378013 90.20407619 43.02758789 93.83398438 C43.66639893 94.10763321 44.30520996 94.38128204 44.96337891 94.66322327 C59.67657844 101.18238109 71.58734884 111.57453009 78.40258789 126.24023438 C81.15015483 133.37933965 81.88914244 139.94025196 81.77758789 147.55273438 C81.76671143 148.56384277 81.75583496 149.57495117 81.74462891 150.61669922 C81.33496201 169.87568102 74.32240696 183.58238935 60.62524414 196.97851562 C41.99429606 213.94363776 17.00239644 215.30821535 -6.91918945 214.47412109 C-26.62958642 213.22079836 -46.95564606 205.17382313 -62.59741211 193.24023438 C-63.59772461 192.48355469 -64.59803711 191.726875 -65.62866211 190.94726562 C-70.48964367 187.12883669 -74.64744817 183.71873884 -77.59741211 178.24023438 C-71.82694309 171.36308298 -65.52807537 165.05382808 -59.15991211 158.74023438 C-58.13168231 157.71703299 -57.10368585 156.69359705 -56.07592773 155.66992188 C-53.58576873 153.19065438 -51.09248378 150.714559 -48.59741211 148.24023438 C-41.16552909 153.80371512 -41.16552909 153.80371512 -37.83178711 156.36523438 C-21.817135 168.45176427 -3.70731518 174.61936363 16.40258789 172.24023438 C24.06429269 170.48227266 28.86952477 167.08350256 33.21508789 160.49023438 C35.31278786 154.74916078 35.20533591 150.2136566 32.90258789 144.55273438 C27.91095558 137.00686628 19.73533831 133.84987477 11.52758789 130.99023438 C9.39699492 130.21785708 7.26680063 129.44437929 5.13696289 128.66992188 C4.03545898 128.27385742 2.93395508 127.87779297 1.79907227 127.46972656 C-53.26469094 107.53721423 -53.26469094 107.53721423 -64.15600586 85.01757812 C-70.13266136 71.08333598 -71.03146811 54.60754911 -65.59741211 40.24023438 C-62.07416146 31.45469269 -57.31846286 24.8608043 -50.59741211 18.24023438 C-49.86264648 17.50675781 -49.12788086 16.77328125 -48.37084961 16.01757812 C-35.05214241 3.42834075 -17.75181595 0.04709225 0 0 Z " fill="#116FC3" transform="translate(624.597412109375,39.759765625)"/>
<path d="M0 0 C14.88808576 11.42991802 23.67002083 27.53157882 26.27734375 46.11328125 C27.46262934 57.03748709 25.69932852 66.7760356 22.27734375 77.11328125 C21.98859375 78.02851563 21.69984375 78.94375 21.40234375 79.88671875 C16.04294464 95.05573231 3.90952375 106.51453393 -10.3359375 113.37109375 C-24.88879621 119.48193645 -41.47804389 120.44028548 -56.515625 115.43359375 C-74.1979686 108.15389565 -86.29625692 95.53675659 -93.72265625 78.11328125 C-100.07508624 59.17910038 -99.05178609 40.22969098 -90.72265625 22.11328125 C-81.94951512 5.57339423 -68.36404198 -4.22462943 -50.72265625 -9.88671875 C-33.64426681 -14.30306168 -14.22923568 -9.86043161 0 0 Z " fill="#FAFBFB" transform="translate(466.72265625,93.88671875)"/>
<path d="M0 0 C6.74071141 -0.06928025 13.48016206 -0.1288913 20.22094727 -0.16479492 C22.50875053 -0.17977948 24.79652557 -0.20017412 27.08422852 -0.22631836 C59.30840524 -0.5850682 59.30840524 -0.5850682 68.41015625 7.28515625 C72.85297943 12.0772923 74.23762281 16.48976604 74.5 23 C74.2290742 30.1614719 72.28187288 34.55116081 67.4375 39.75 C60.71805594 44.82386592 51.33353699 47.13544469 43.02612305 47.11352539 C42.06550461 47.11344986 41.10488617 47.11337433 40.11515808 47.11329651 C39.0910231 47.10813522 38.06688812 47.10297394 37.01171875 47.09765625 C35.95338333 47.0962413 34.89504791 47.09482635 33.80464172 47.09336853 C30.43223211 47.08778159 27.05988946 47.07523144 23.6875 47.0625 C21.39778742 47.05748331 19.10807379 47.0529207 16.81835938 47.04882812 C11.21219318 47.03866835 5.60617134 47.01909025 0 47 C0 31.49 0 15.98 0 0 Z " fill="#FBFBFC" transform="translate(186,164)"/>
<path d="M0 0 C10.2403125 -0.12375 10.2403125 -0.12375 20.6875 -0.25 C22.81405029 -0.28641602 24.94060059 -0.32283203 27.1315918 -0.36035156 C40.38310239 -0.49389764 52.50308625 -0.31005567 62.609375 9.4140625 C65.48135097 12.68940588 65.19607538 15.48995493 65.25 19.75 C65.27578125 20.96171875 65.3015625 22.1734375 65.328125 23.421875 C64.74136362 29.82036817 61.83120191 33.92031839 57 38 C49.24386647 42.77547065 41.92876416 43.14849359 33.0078125 43.09765625 C32.16855225 43.09664917 31.32929199 43.09564209 30.46459961 43.09460449 C27.35138569 43.08940127 24.23819137 43.07544014 21.125 43.0625 C14.15375 43.041875 7.1825 43.02125 0 43 C0 28.81 0 14.62 0 0 Z " fill="#FBFBFC" transform="translate(186,83)"/>
<path d="M0 0 C5.58003158 3.05322483 9.15543317 6.79541885 11.3125 12.8125 C12.28480486 19.76092256 11.27804434 25.95089364 7.3125 31.8125 C3.01325594 35.99204353 -1.02446381 37.55643883 -6.9375 38.125 C-12.29575542 37.67847871 -16.53058057 36.10788833 -20.26953125 32.12890625 C-24.75697222 26.11547671 -25.48861944 20.22285481 -24.6875 12.8125 C-23.00749539 7.46205053 -20.4328307 3.89696496 -15.6875 0.8125 C-15.089375 0.4 -14.49125 -0.0125 -13.875 -0.4375 C-8.98639153 -2.11359433 -4.78357464 -1.54047319 0 0 Z " fill="#1069C0" transform="translate(844.6875,310.1875)"/>
<path d="M0 0 C5.61637112 3.0161993 9.24804994 6.76748404 11.375 12.8125 C12.1593977 19.04941832 11.8916171 24.57132133 8.71875 30.08984375 C5.71139756 33.94519964 1.96769851 36.2816005 -2.625 37.8125 C-9.70559867 38.27680155 -13.6831068 37.20706423 -19.3125 32.625 C-23.3036963 27.77084233 -25.31668906 22.34634831 -25.0390625 15.9609375 C-23.95160352 10.31846164 -21.32589476 4.56780265 -16.5 1.25 C-10.74304651 -1.62847675 -6.16780354 -2.02048737 0 0 Z " fill="#1068BF" transform="translate(469.625,310.1875)"/>
<path d="M0 0 C5.09299988 2.80716529 7.99672579 6.99017736 9.8125 12.4375 C10.51799952 19.59658529 10.12912715 25.50914517 5.8125 31.4375 C1.77848554 35.36807819 -1.92071579 37.18088292 -7.5 37.8125 C-13.40299579 37.21219534 -18.07537434 35.01869927 -22.0625 30.5625 C-25.68236763 25.23916525 -27.28735781 19.87790449 -26.1875 13.4375 C-23.92168402 6.98041069 -21.36682821 2.5271641 -15.1875 -0.5625 C-9.84596265 -2.34301245 -5.11661611 -2.26759123 0 0 Z " fill="#0F65BE" transform="translate(675.1875,310.5625)"/>
<path d="M0 0 C19.89655172 0 19.89655172 0 24.875 4.8125 C26.41542833 7.80777732 26.47570543 9.670062 26 13 C24 15.875 24 15.875 22 18 C22.804375 18.61875 23.60875 19.2375 24.4375 19.875 C27.41866714 22.34718738 27.89120322 23.02082894 28.3125 26.8125 C27.92147661 30.80093862 26.84914102 32.22786279 24 35 C19.26749097 37.63928388 14.44145035 37.22608051 9.1875 37.125 C6.155625 37.08375 3.12375 37.0425 0 37 C0 24.79 0 12.58 0 0 Z " fill="#0A5AB9" transform="translate(144,310)"/>
<path d="M0 0 C7 0 7 0 9.44140625 2.125 C10.14136719 3.07375 10.84132813 4.0225 11.5625 5 C12.3153125 5.99902344 13.068125 6.99804688 13.84375 8.02734375 C14.5553125 9.00832031 15.266875 9.98929687 16 11 C17.18747929 12.5208495 18.37497617 14.04168528 19.5625 15.5625 C22 18.7398374 22 18.7398374 22 21 C22.66 21 23.32 21 24 21 C24 14.07 24 7.14 24 0 C26.31 0 28.62 0 31 0 C31 12.21 31 24.42 31 37 C25 37 25 37 23.06542969 35.39526367 C22.25187012 34.29275269 22.25187012 34.29275269 21.421875 33.16796875 C20.81859375 32.36939453 20.2153125 31.57082031 19.59375 30.74804688 C18.9853125 29.90306641 18.376875 29.05808594 17.75 28.1875 C17.12609375 27.35412109 16.5021875 26.52074219 15.859375 25.66210938 C13.49333347 22.4878403 11.19628288 19.29442432 9 16 C8.67 22.93 8.34 29.86 8 37 C5.36 37 2.72 37 0 37 C0 24.79 0 12.58 0 0 Z " fill="#1067BF" transform="translate(491,310)"/>
<path d="M0 0 C7 0 7 0 9.06396484 1.72827148 C9.60746582 2.51790283 10.1509668 3.30753418 10.7109375 4.12109375 C11.31550781 4.97380859 11.92007812 5.82652344 12.54296875 6.70507812 C13.14753906 7.60677734 13.75210937 8.50847656 14.375 9.4375 C15.00277344 10.33533203 15.63054687 11.23316406 16.27734375 12.15820312 C17.43318026 13.81207285 18.57923074 15.47285346 19.71240234 17.14233398 C20.86789565 18.92734265 20.86789565 18.92734265 22 20 C22.33 13.4 22.66 6.8 23 0 C25.64 0 28.28 0 31 0 C31 12.21 31 24.42 31 37 C24 37 24 37 21.82836914 35.19580078 C21.23660889 34.37063965 20.64484863 33.54547852 20.03515625 32.6953125 C19.38095703 31.80199219 18.72675781 30.90867187 18.05273438 29.98828125 C17.06756836 28.57095703 17.06756836 28.57095703 16.0625 27.125 C15.37865234 26.18785156 14.69480469 25.25070312 13.99023438 24.28515625 C9 17.35565997 9 17.35565997 9 15 C8.34 15 7.68 15 7 15 C7 22.26 7 29.52 7 37 C4.69 37 2.38 37 0 37 C0 24.79 0 12.58 0 0 Z " fill="#0E65BE" transform="translate(279,310)"/>
<path d="M0 0 C2.64 0 5.28 0 8 0 C8 4.62 8 9.24 8 14 C12.62 14 17.24 14 22 14 C22 9.38 22 4.76 22 0 C24.31 0 26.62 0 29 0 C29 12.21 29 24.42 29 37 C26.69 37 24.38 37 22 37 C22 32.05 22 27.1 22 22 C17.38 22 12.76 22 8 22 C8 26.95 8 31.9 8 37 C5.36 37 2.72 37 0 37 C0 24.79 0 12.58 0 0 Z " fill="#1061BC" transform="translate(781,310)"/>
<path d="M0 0 C16 0 16 0 22 3 C24.92647067 6.41421579 25.53389612 9.5092359 25.35546875 14.00390625 C24.7587725 17.35458518 23.18036911 19.45623604 21 22 C17.85398836 24.00693846 15.44387038 24.22220712 11.75 24.125 C10.1825 24.08375 8.615 24.0425 7 24 C7 28.29 7 32.58 7 37 C4.69 37 2.38 37 0 37 C0 24.79 0 12.58 0 0 Z " fill="#0D66BF" transform="translate(866,310)"/>
<path d="M0 0 C17.29945055 0 17.29945055 0 22.75390625 4.421875 C25.18602151 7.50204605 25.21465704 11.19299428 25 15 C23.85811696 18.4064039 22.26659947 21.17466744 19.18359375 23.18359375 C16.57218992 24.15995046 14.52988942 24.19815498 11.75 24.125 C10.1825 24.08375 8.615 24.0425 7 24 C7 28.29 7 32.58 7 37 C4.69 37 2.38 37 0 37 C0 24.79 0 12.58 0 0 Z " fill="#116DC2" transform="translate(696,310)"/>
<path d="M0 0 C0.66 0 1.32 0 2 0 C2 66.66 2 133.32 2 202 C37.64 202 73.28 202 110 202 C110 202.33 110 202.66 110 203 C104.56229935 204.13534679 99.29756533 204.1343937 93.77197266 204.11352539 C92.74038214 204.11364593 91.70879162 204.11376646 90.64594078 204.11389065 C87.31862581 204.11314641 83.9913674 204.10554043 80.6640625 204.09765625 C78.60506212 204.09618532 76.54606137 204.09516554 74.48706055 204.09460449 C66.86636798 204.08936914 59.24568343 204.07540789 51.625 204.0625 C34.58875 204.041875 17.5525 204.02125 0 204 C0 136.68 0 69.36 0 0 Z " fill="#045FBB" transform="translate(140,46)"/>
<path d="M0 0 C2.31 0 4.62 0 7 0 C7.01981934 0.70084717 7.03963867 1.40169434 7.06005859 2.1237793 C7.15556166 5.31205162 7.26513871 8.49969147 7.375 11.6875 C7.4059375 12.79029297 7.436875 13.89308594 7.46875 15.02929688 C7.50742188 16.09599609 7.54609375 17.16269531 7.5859375 18.26171875 C7.6173584 19.24100342 7.6487793 20.22028809 7.68115234 21.22924805 C8.01429569 24.12422801 8.79800587 26.35772167 10 29 C15.05009595 29.93786082 15.05009595 29.93786082 20 29 C21.36839363 26.26321275 21.21634818 23.95735576 21.31640625 20.8984375 C21.35830078 19.68671875 21.40019531 18.475 21.44335938 17.2265625 C21.48267578 15.95554687 21.52199219 14.68453125 21.5625 13.375 C21.60568359 12.09625 21.64886719 10.8175 21.69335938 9.5 C21.79969886 6.33344652 21.90172833 3.16681247 22 0 C24.64 0 27.28 0 30 0 C30.08738991 4.37487331 30.140524 8.74952078 30.1875 13.125 C30.21263672 14.3625 30.23777344 15.6 30.26367188 16.875 C30.27333984 18.07382812 30.28300781 19.27265625 30.29296875 20.5078125 C30.3086792 21.60754395 30.32438965 22.70727539 30.34057617 23.84033203 C29.81509335 28.71545649 28.09997275 31.95643611 24.5625 35.3125 C20.11118432 38.24385423 16.31500133 38.44291678 11 38 C5.57835311 36.16620767 2.58426906 34.22328388 0 29 C-0.34057617 25.77026367 -0.34057617 25.77026367 -0.29296875 22.16796875 C-0.28330078 20.87568359 -0.27363281 19.58339844 -0.26367188 18.25195312 C-0.23860985 16.8971293 -0.21321506 15.54231159 -0.1875 14.1875 C-0.17244013 12.81316555 -0.15875401 11.43881532 -0.14648438 10.06445312 C-0.11116628 6.70923368 -0.06183851 3.35481834 0 0 Z " fill="#0D63BD" transform="translate(182,310)"/>
<path d="M0 0 C7.92 0 15.84 0 24 0 C24 1.98 24 3.96 24 6 C18.72 6 13.44 6 8 6 C8 8.97 8 11.94 8 15 C12.62 15 17.24 15 22 15 C22 17.31 22 19.62 22 22 C17.38 22 12.76 22 8 22 C8 24.64 8 27.28 8 30 C13.61 30 19.22 30 25 30 C25 32.31 25 34.62 25 37 C16.75 37 8.5 37 0 37 C0 24.79 0 12.58 0 0 Z " fill="#1268BF" transform="translate(321,310)"/>
<path d="M0 0 C2.84106947 2.04557002 4.07672918 2.988713 5.125 6.25 C0.375 9.25 0.375 9.25 -1.875 9.25 C-2.535 8.26 -3.195 7.27 -3.875 6.25 C-6.95865871 5.9997843 -6.95865871 5.9997843 -9.875 6.25 C-10.205 7.57 -10.535 8.89 -10.875 10.25 C-9.97136719 10.72050781 -9.06773437 11.19101562 -8.13671875 11.67578125 C-6.94516014 12.30439878 -5.75376228 12.93332109 -4.5625 13.5625 C-3.96759766 13.87123047 -3.37269531 14.17996094 -2.75976562 14.49804688 C3.16384067 17.64186027 3.16384067 17.64186027 5.125 20.25 C6.65044248 27.00553097 6.65044248 27.00553097 4.9375 31.0625 C2.27705297 34.27338435 0.0856671 35.92977763 -3.875 37.25 C-9.99593081 37.75171564 -12.9917095 37.33833623 -17.875 33.25 C-20.29136294 30.59200077 -20.875 29.89705667 -20.875 26.25 C-17.625 25.5 -17.625 25.5 -13.875 25.25 C-12.54166667 26.58333333 -11.20833333 27.91666667 -9.875 29.25 C-6.18067489 29.10387105 -6.18067489 29.10387105 -2.875 28.25 C-2.92140671 25.83545255 -2.92140671 25.83545255 -3.875 23.25 C-6.48441577 21.51245688 -6.48441577 21.51245688 -9.6875 20.25 C-14.34953494 18.25117381 -17.08132517 16.55000306 -19.875 12.25 C-20.47353879 8.06022845 -20.37255673 6.04964475 -18.125 2.4375 C-12.86993185 -2.67159403 -6.5096984 -3.45190688 0 0 Z " fill="#1169C0" transform="translate(764.875,310.75)"/>
<path d="M0 0 C4.15125622 1.56651178 6.75128399 3.12721132 9 7 C9 7.66 9 8.32 9 9 C6.35261084 10.4606285 5.10551666 11 2 11 C1.34 10.01 0.68 9.02 0 8 C-3.08365871 7.7497843 -3.08365871 7.7497843 -6 8 C-6.33 9.32 -6.66 10.64 -7 12 C-5.66195313 12.67095703 -5.66195313 12.67095703 -4.296875 13.35546875 C-2.54117187 14.26232422 -2.54117187 14.26232422 -0.75 15.1875 C0.41015625 15.77917969 1.5703125 16.37085938 2.765625 16.98046875 C6.05660649 19.03534487 7.90255865 20.75942759 10 24 C10.47074539 27.76596313 10.30423825 30.21255982 8.9375 33.75 C5.50316618 37.73825863 1.56362341 38.83540806 -3.5625 39.375 C-8.10386361 38.87957852 -11.19720137 37.36764034 -14.8125 34.625 C-16.36448283 32.50123403 -16.65151766 30.57876935 -17 28 C-13.75 27.25 -13.75 27.25 -10 27 C-8.66666667 28.33333333 -7.33333333 29.66666667 -6 31 C-2.30567489 30.85387105 -2.30567489 30.85387105 1 30 C0.95787917 27.59045873 0.95787917 27.59045873 0 25 C-2.63894827 23.19116928 -2.63894827 23.19116928 -5.875 21.875 C-13.13530655 18.6384778 -13.13530655 18.6384778 -15 16 C-15.68955439 12.60969089 -15.59693351 9.40252099 -15 6 C-10.66631108 0.41182218 -6.90517723 -0.72009297 0 0 Z " fill="#1067BF" transform="translate(408,309)"/>
<path d="M0 0 C4.13947368 2.54013158 4.13947368 2.54013158 5.75 4.6875 C5.75 5.6775 5.75 6.6675 5.75 7.6875 C3.77 8.3475 1.79 9.0075 -0.25 9.6875 C-0.600625 9.1925 -0.95125 8.6975 -1.3125 8.1875 C-4.19374289 5.95686034 -6.72009026 6.48769379 -10.25 6.6875 C-10.29277668 9.0851633 -10.29277668 9.0851633 -9.25 11.6875 C-6.90508582 13.11342127 -4.81409204 14.19630662 -2.3125 15.25 C4.33780408 18.10770793 4.33780408 18.10770793 6.171875 20.6875 C7.37682386 24.85597173 7.26366027 28.431886 5.625 32.4375 C2.87358727 35.73919527 0.08649971 37.34705194 -4.20703125 37.97265625 C-8.91705641 38.17978929 -12.27852865 37.39532138 -16.25 34.6875 C-18.625 31.5 -18.625 31.5 -20.25 28.6875 C-19.92 28.0275 -19.59 27.3675 -19.25 26.6875 C-16.4375 25.8125 -16.4375 25.8125 -13.25 25.6875 C-11.89567325 26.99950404 -10.56266518 28.33381404 -9.25 29.6875 C-6.082168 30.02198259 -6.082168 30.02198259 -3.25 29.6875 C-2.92 28.0375 -2.59 26.3875 -2.25 24.6875 C-5.21948488 22.83157195 -8.20699892 21.22879017 -11.375 19.75 C-16.81872471 16.99732411 -16.81872471 16.99732411 -18.25 13.6875 C-18.76483623 10.57508095 -18.85307786 7.79141447 -18.25 4.6875 C-13.39415241 -1.61197796 -7.41211134 -2.99335266 0 0 Z " fill="#1068C0" transform="translate(241.25,310.3125)"/>
<path d="M0 0 C7.92 0 15.84 0 24 0 C24 1.98 24 3.96 24 6 C18.39 6 12.78 6 7 6 C7 8.97 7 11.94 7 15 C11.62 15 16.24 15 21 15 C21 17.31 21 19.62 21 22 C16.38 22 11.76 22 7 22 C7 24.64 7 27.28 7 30 C12.61 30 18.22 30 24 30 C24 32.31 24 34.62 24 37 C16.08 37 8.16 37 0 37 C0 24.79 0 12.58 0 0 Z " fill="#156FC2" transform="translate(534,310)"/>
<path d="M0 0 C2.69485253 1.71490616 4.15699853 3.00649746 5.75 5.75 C5.75 6.41 5.75 7.07 5.75 7.75 C3.77 8.41 1.79 9.07 -0.25 9.75 C-0.62125 9.255 -0.9925 8.76 -1.375 8.25 C-3.99694393 6.15244486 -5.98842472 6.53256165 -9.25 6.75 C-9.58 8.07 -9.91 9.39 -10.25 10.75 C-8.91195313 11.42095703 -8.91195313 11.42095703 -7.546875 12.10546875 C-5.79117187 13.01232422 -5.79117187 13.01232422 -4 13.9375 C-2.83984375 14.52917969 -1.6796875 15.12085938 -0.484375 15.73046875 C2.80660649 17.78534487 4.65255865 19.50942759 6.75 22.75 C7.22074539 26.51596313 7.05423825 28.96255982 5.6875 32.5 C2.25316618 36.48825863 -1.68637659 37.58540806 -6.8125 38.125 C-10.72346371 37.69834941 -12.97621133 36.93252578 -16.25 34.75 C-18.625 31.5625 -18.625 31.5625 -20.25 28.75 C-19.92 28.09 -19.59 27.43 -19.25 26.75 C-16.1875 26.125 -16.1875 26.125 -13.25 25.75 C-12.92 26.74 -12.59 27.73 -12.25 28.75 C-10.97125 28.935625 -9.6925 29.12125 -8.375 29.3125 C-7.65570313 29.41691406 -6.93640625 29.52132813 -6.1953125 29.62890625 C-4.16859333 29.9184297 -4.16859333 29.9184297 -2.25 28.75 C-2.29168517 26.33773728 -2.29168517 26.33773728 -3.25 23.75 C-5.8919027 21.97743608 -5.8919027 21.97743608 -9.125 20.6875 C-16.11147733 17.64880323 -16.11147733 17.64880323 -18.25 13.75 C-18.91082073 10.67167678 -18.85008572 7.83851459 -18.25 4.75 C-13.38122145 -1.56625326 -7.4524694 -2.86633439 0 0 Z " fill="#1066BF" transform="translate(375.25,310.25)"/>
<path d="M0 0 C3.125 2.3125 3.125 2.3125 4.0625 5.0625 C4.083125 5.805 4.10375 6.5475 4.125 7.3125 C2.145 7.9725 0.165 8.6325 -1.875 9.3125 C-2.266875 8.8175 -2.65875 8.3225 -3.0625 7.8125 C-5.42591715 5.85656857 -6.88935003 6.07042027 -9.875 6.3125 C-10.205 7.6325 -10.535 8.9525 -10.875 10.3125 C-9.51955078 11.00085938 -9.51955078 11.00085938 -8.13671875 11.703125 C-6.9450523 12.32241623 -5.75366034 12.94223585 -4.5625 13.5625 C-2.80486328 14.46742188 -2.80486328 14.46742188 -1.01171875 15.390625 C1.95886324 17.21070761 3.49333721 18.28308413 5.125 21.3125 C5.84284048 24.73476273 5.8236162 27.88595388 5.125 31.3125 C2.79994157 34.54418499 -0.11629531 36.05959844 -3.875 37.3125 C-9.12394167 37.70864654 -12.42842094 37.17807317 -16.875 34.3125 C-19.3125 31.8125 -19.3125 31.8125 -20.875 29.3125 C-20.38 27.8275 -20.38 27.8275 -19.875 26.3125 C-17.125 25.5625 -17.125 25.5625 -13.875 25.3125 C-13.235625 25.9725 -12.59625 26.6325 -11.9375 27.3125 C-11.256875 27.9725 -10.57625 28.6325 -9.875 29.3125 C-6.18067489 29.16637105 -6.18067489 29.16637105 -2.875 28.3125 C-2.92140671 25.89795255 -2.92140671 25.89795255 -3.875 23.3125 C-6.48441577 21.57495688 -6.48441577 21.57495688 -9.6875 20.3125 C-14.34953494 18.31367381 -17.08132517 16.61250306 -19.875 12.3125 C-20.46837198 8.15889617 -20.35574603 6.11374338 -18.1875 2.5 C-12.9477433 -2.45652661 -6.47219928 -3.27588775 0 0 Z " fill="#1068C0" transform="translate(603.875,310.6875)"/>
<path d="M0 0 C9.24 0 18.48 0 28 0 C28 1.98 28 3.96 28 6 C24.7 6 21.4 6 18 6 C18 16.23 18 26.46 18 37 C15.36 37 12.72 37 10 37 C10 26.77 10 16.54 10 6 C6.7 6 3.4 6 0 6 C0 4.02 0 2.04 0 0 Z " fill="#0F65BE" transform="translate(615,310)"/>
<path d="M0 0 C2.93087207 2.25451698 3.82814288 3.48442865 5 7 C5.55165147 11.74782 5.44453763 15.12680109 3.25 19.4375 C-0.10171017 23.25472547 -0.10171017 23.25472547 -3 24 C-7.4584174 24 -9.44950078 23.44508447 -12.9375 20.625 C-15.64487695 16.90123237 -15.69555977 13.1184648 -15.5 8.6328125 C-14.71706483 4.51016949 -13.08502044 2.79120897 -10 0 C-6.74294726 -1.62852637 -3.41047122 -0.88469649 0 0 Z " fill="#F7F9FB" transform="translate(843,317)"/>
<path d="M0 0 C2.92612619 1.82205543 5.43486248 3.86972495 7 7 C7.58355433 12.10193211 8.13627177 17.32501172 4.9375 21.625 C1.38962788 24.49349235 -0.44549289 25.15980727 -5 25 C-9.06201738 22.93067039 -11.30818444 21.21022594 -13 17 C-13.74148241 12.25796134 -13.43787689 8.83045617 -11.1875 4.5625 C-7.67938566 0.45299462 -5.33935786 -0.73285304 0 0 Z " fill="#F7F9FB" transform="translate(670,316)"/>
<path d="M0 0 C2.92612619 1.82205543 5.43486248 3.86972495 7 7 C7.55258891 12.03671207 7.53929549 15.92140903 5.25 20.5 C1.88803089 24.23552124 1.88803089 24.23552124 -1 25 C-5.11602451 24.91242501 -6.66933062 24.28658013 -9.8125 21.5625 C-13.11774756 17.69063857 -13.33695518 15.28111103 -13.2890625 10.32421875 C-12.84891575 6.78520095 -11.27904971 4.66974395 -9 2 C-5.45870816 -0.36086122 -4.17249782 -0.57269578 0 0 Z " fill="#F8FAFB" transform="translate(466,316)"/>
<path d="M0 0 C4.62 0 9.24 0 14 0 C14.66 0.66 15.32 1.32 16 2 C15.67 2.66 15.34 3.32 15 4 C12.93359375 4.4140625 12.93359375 4.4140625 10.4375 4.625 C9.61121094 4.69976562 8.78492188 4.77453125 7.93359375 4.8515625 C6.97646484 4.92503906 6.97646484 4.92503906 6 5 C5.91909029 6.62418745 5.86085005 8.24951745 5.8125 9.875 C5.77769531 10.77992188 5.74289063 11.68484375 5.70703125 12.6171875 C5.80371094 13.40351563 5.90039062 14.18984375 6 15 C6.99 15.66 7.98 16.32 9 17 C8.67 17.66 8.34 18.32 8 19 C7.34 19 6.68 19 6 19 C6 22.3 6 25.6 6 29 C8.97 29 11.94 29 15 29 C15.33 29.99 15.66 30.98 16 32 C17.485 32.495 17.485 32.495 19 33 C18.67 31.68 18.34 30.36 18 29 C18.66 29 19.32 29 20 29 C20.33 26.03 20.66 23.06 21 20 C23 21 25 22 27 23 C27.34338883 26.6914299 27.27811415 28.54677695 25.3125 31.75 C22.38703329 34.59640004 20.07356845 35.93802294 15.90893555 36.0625 C13.49336472 35.97358638 11.09742607 35.81477164 8.6875 35.625 C5.820625 35.41875 2.95375 35.2125 0 35 C0 23.45 0 11.9 0 0 Z " fill="#1370C3" transform="translate(145,311)"/>
<path d="M0 0 C2.64 0 5.28 0 8 0 C8 12.21 8 24.42 8 37 C1 37 1 37 -1.65234375 34.515625 C-2.40644531 33.43796875 -3.16054688 32.3603125 -3.9375 31.25 C-4.70964844 30.18265625 -5.48179687 29.1153125 -6.27734375 28.015625 C-8 25 -8 25 -8 21 C-6.1875 19.9375 -6.1875 19.9375 -4 19 C-3.01 19.33 -2.02 19.66 -1 20 C-0.67 13.4 -0.34 6.8 0 0 Z " fill="#166BC1" transform="translate(302,310)"/>
<path d="M0 0 C6.29169448 -0.44940675 10.82840358 0.19865562 16 4 C21.13054115 9.58771808 22.35471275 14.64058329 22.28515625 22.1328125 C21.87438481 26.26303493 20.63089991 29.76009548 18 33 C15.40041519 34.52827154 12.94314265 35.36932658 10 36 C9.75 33.75 9.75 33.75 10 31 C10.66 30.443125 11.32 29.88625 12 29.3125 C14.81497281 26.05768769 14.27467295 23.50425715 14.04296875 19.33984375 C14 17 14 17 15 14 C15 13.34 15 12.68 15 12 C9.94758334 7.6843941 6.60478512 6.34762027 0 6 C0 4.02 0 2.04 0 0 Z " fill="#126BC1" transform="translate(663,309)"/>
<path d="M0 0 C2.31 0 4.62 0 7 0 C7 12.21 7 24.42 7 37 C4.69 37 2.38 37 0 37 C0 24.79 0 12.58 0 0 Z " fill="#0B61BD" transform="translate(259,310)"/>
<path d="M0 0 C0.33 0 0.66 0 1 0 C1 4.62 1 9.24 1 14 C5.62 14 10.24 14 15 14 C15 14.33 15 14.66 15 15 C10.38 15 5.76 15 1 15 C1.33 15.99 1.66 16.98 2 18 C1.34 18.99 0.68 19.98 0 21 C-0.29991069 23.58885171 -0.50865225 26.09149082 -0.625 28.6875 C-0.66367187 29.38939453 -0.70234375 30.09128906 -0.7421875 30.81445312 C-0.8362334 32.54254655 -0.9191968 34.27123675 -1 36 C-2.65 36 -4.3 36 -6 36 C-6 24.45 -6 12.9 -6 1 C-4.35 1 -2.7 1 -1 1 C-0.67 0.67 -0.34 0.34 0 0 Z " fill="#1875C5" transform="translate(788,310)"/>
<path d="M0 0 C17.26038781 0 17.26038781 0 22.7578125 4.41015625 C25.13200746 7.44882716 25.14205926 11.2523415 25 15 C23.5625 17.5625 23.5625 17.5625 22 19 C22 17.02 22 15.04 22 13 C21.01 13 20.02 13 19 13 C16.875 10.5625 16.875 10.5625 15 8 C13.03177114 6.03177114 9.65191291 6.33751619 7 6 C7 5.67 7 5.34 7 5 C9.64 5 12.28 5 15 5 C15.33 4.34 15.66 3.68 16 3 C8.575 2.01 8.575 2.01 1 1 C1 12.55 1 24.1 1 36 C2.65 36 4.3 36 6 36 C6 32.04 6 28.08 6 24 C6.33 24 6.66 24 7 24 C7 28.29 7 32.58 7 37 C4.69 37 2.38 37 0 37 C0 24.79 0 12.58 0 0 Z " fill="#0A54B7" transform="translate(696,310)"/>
<path d="M0 0 C7.92 0 15.84 0 24 0 C24 1.98 24 3.96 24 6 C18.39 6 12.78 6 7 6 C7 5.67 7 5.34 7 5 C11.95 5 16.9 5 22 5 C22 3.68 22 2.36 22 1 C15.07 1 8.14 1 1 1 C1 12.55 1 24.1 1 36 C5.455 35.505 5.455 35.505 10 35 C12.18675006 34.93905379 14.37504529 34.91235684 16.5625 34.9375 C17.59503906 34.94652344 18.62757813 34.95554687 19.69140625 34.96484375 C20.83416016 34.98224609 20.83416016 34.98224609 22 35 C22 34.01 22 33.02 22 32 C17.05 32 12.1 32 7 32 C7 31.67 7 31.34 7 31 C12.61 31 18.22 31 24 31 C24 32.98 24 34.96 24 37 C16.08 37 8.16 37 0 37 C0 24.79 0 12.58 0 0 Z " fill="#0448B2" transform="translate(534,310)"/>
<path d="M0 0 C1.32 0 2.64 0 4 0 C4.06058594 1.05960937 4.12117187 2.11921875 4.18359375 3.2109375 C4.26800127 4.59897221 4.35264917 5.98699232 4.4375 7.375 C4.47681641 8.07367188 4.51613281 8.77234375 4.55664062 9.4921875 C4.74280134 13.37360492 4.74280134 13.37360492 6 17 C6.4207056 20.05913068 6.49462858 22.9480364 6 26 C3.5 29.0625 3.5 29.0625 1 31 C0.67 30.01 0.34 29.02 0 28 C-0.66 28.33 -1.32 28.66 -2 29 C-1.84152588 28.29335205 -1.68305176 27.5867041 -1.51977539 26.85864258 C-0.99240834 23.95824766 -0.7938145 21.2061873 -0.68359375 18.26171875 C-0.64169922 17.19501953 -0.59980469 16.12832031 -0.55664062 15.02929688 C-0.51732422 13.92650391 -0.47800781 12.82371094 -0.4375 11.6875 C-0.39431641 10.56537109 -0.35113281 9.44324219 -0.30664062 8.28710938 C-0.20085213 5.52485431 -0.09876328 2.7625137 0 0 Z " fill="#1271C4" transform="translate(206,311)"/>
<path d="M0 0 C3.34384841 3.12092519 5.65013238 5.6444959 6.3359375 10.26171875 C6.43730677 16.55675052 5.5793169 21.7092896 2 27 C-2.46809499 31.34369328 -6.54361233 32.95906021 -12.75 33.0625 C-13.8225 33.041875 -14.895 33.02125 -16 33 C-16.33 32.34 -16.66 31.68 -17 31 C-16.22914063 30.93941406 -15.45828125 30.87882812 -14.6640625 30.81640625 C-13.15972656 30.69072266 -13.15972656 30.69072266 -11.625 30.5625 C-10.62726562 30.48128906 -9.62953125 30.40007812 -8.6015625 30.31640625 C-6.02072387 30.15034374 -6.02072387 30.15034374 -4 29 C-4.99 27.35 -5.98 25.7 -7 24 C-6.360625 23.195625 -5.72125 22.39125 -5.0625 21.5625 C-2.40147674 17.64148693 -2.20593653 13.63357199 -2 9 C0 11 0 11 0.046875 13.27734375 C-0.05109375 14.15519531 -0.1490625 15.03304688 -0.25 15.9375 C-0.33765625 16.81277344 -0.4253125 17.68804687 -0.515625 18.58984375 C-1 21 -1 21 -3 24 C-1.35 23.67 0.3 23.34 2 23 C3.10111689 19.69664934 3.20226528 17.10167863 3.25 13.625 C3.27578125 12.50351562 3.3015625 11.38203125 3.328125 10.2265625 C2.96827024 6.68799073 1.95673582 4.91450652 0 2 C0 1.34 0 0.68 0 0 Z " fill="#1360BD" transform="translate(850,315)"/>
<path d="M0 0 C2.84106947 2.04557002 4.07672918 2.988713 5.125 6.25 C0.375 9.25 0.375 9.25 -1.875 9.25 C-2.535 8.26 -3.195 7.27 -3.875 6.25 C-7.44269552 5.51393501 -7.44269552 5.51393501 -10.875 5.25 C-10.38 4.775625 -9.885 4.30125 -9.375 3.8125 C-7.75957803 2.49076302 -7.75957803 2.49076302 -7.875 1.25 C-12.92959911 1.46110428 -12.92959911 1.46110428 -16.875 4.3125 C-18.25379969 8.36272408 -17.65571805 11.06251225 -16.875 15.25 C-18.375 14.1875 -18.375 14.1875 -19.875 12.25 C-20.40995152 8.12323113 -20.34136595 5.99951671 -18.125 2.4375 C-12.86993185 -2.67159403 -6.5096984 -3.45190688 0 0 Z " fill="#105FBB" transform="translate(764.875,310.75)"/>
<path d="M0 0 C6.25925926 -0.48148148 6.25925926 -0.48148148 9.5 1.625 C11 4 11 4 10.9375 7.125 C10 10 10 10 7 12 C4.66800612 12.07905064 2.33167378 12.08798769 0 12 C0 8.04 0 4.08 0 0 Z " fill="#E7F0F6" transform="translate(873,316)"/>
<path d="M0 0 C0 1.32 0 2.64 0 4 C-1.98 4.99 -1.98 4.99 -4 6 C-4 7.32 -4 8.64 -4 10 C-3.34 9.67 -2.68 9.34 -2 9 C-1.34 9.33 -0.68 9.66 0 10 C0.33 9.01 0.66 8.02 1 7 C1.20367187 7.59296875 1.40734375 8.1859375 1.6171875 8.796875 C3.55744992 11.88814055 5.84891424 12.71651305 9.125 14.25 C10.22070312 14.77078125 11.31640625 15.2915625 12.4453125 15.828125 C13.28835937 16.21484375 14.13140625 16.6015625 15 17 C13 18 13 18 11.125 17.44140625 C10.42375 17.15136719 9.7225 16.86132812 9 16.5625 C6.09084926 15.33442475 6.09084926 15.33442475 3 15 C4.13304992 18.39914975 5.12518475 19.05254451 8 21 C3.04928279 20.27195335 -1.06364974 18.67817023 -4.875 15.375 C-6.63967347 11.64957824 -6.68932714 8.03960528 -6 4 C-3.07317073 0 -3.07317073 0 0 0 Z " fill="#0D63BE" transform="translate(229,311)"/>
<path d="M0 0 C6.3782235 -0.36103152 6.3782235 -0.36103152 8.9375 1.125 C10.52225401 3.92162472 10.45947423 5.8493196 10 9 C8.375 10.875 8.375 10.875 6 12 C4.02 12 2.04 12 0 12 C0 8.04 0 4.08 0 0 Z " fill="#F4F7FA" transform="translate(703,316)"/>
<path d="M0 0 C5.39449293 -0.27429625 8.51925805 -0.36055646 13 3 C12.125 7.875 12.125 7.875 11 9 C9.14712498 9.07226502 7.29166122 9.0838122 5.4375 9.0625 C4.42558594 9.05347656 3.41367188 9.04445313 2.37109375 9.03515625 C1.58863281 9.02355469 0.80617187 9.01195312 0 9 C0 6.03 0 3.06 0 0 Z " fill="#EAF1F8" transform="translate(151,331)"/>
<path d="M0 0 C0.7115625 0.7425 0.7115625 0.7425 1.4375 1.5 C3.48513623 3.46573078 5.23747349 3.62668561 8 4 C8 4.33 8 4.66 8 5 C6.35 5.33 4.7 5.66 3 6 C3.33 6.66 3.66 7.32 4 8 C9.57830016 8.12469099 9.57830016 8.12469099 15 7 C12.10586554 10.16976631 10.03428587 10.92194069 5.6875 11.25 C0.96092745 10.9295544 -2.07010845 9.46405566 -5.8125 6.625 C-7.36448283 4.50123403 -7.65151766 2.57876935 -8 0 C-4.95904675 -0.97744926 -3.00367313 -1.16271218 0 0 Z " fill="#1162BC" transform="translate(399,337)"/>
<path d="M0 0 C7.37042925 -0.36248013 7.37042925 -0.36248013 10.0625 1.1875 C11 3 11 3 10.8125 5.625 C10 8 10 8 8 9 C5.3276379 9.13415472 2.67749512 9.04318541 0 9 C0 6.03 0 3.06 0 0 Z " fill="#EBF2F7" transform="translate(151,316)"/>
<path d="M0 0 C6.36734694 0.36734694 6.36734694 0.36734694 9.4375 3.4375 C11 6 11 6 11 8 C9.02 8.66 7.04 9.32 5 10 C4.62875 9.505 4.2575 9.01 3.875 8.5 C1.22454058 6.37963246 -0.69560641 6.71877501 -4 7 C-4.99 7.495 -4.99 7.495 -6 8 C-5.649375 7.38125 -5.29875 6.7625 -4.9375 6.125 C-4.628125 5.42375 -4.31875 4.7225 -4 4 C-4.33 3.34 -4.66 2.68 -5 2 C-3.35 1.67 -1.7 1.34 0 1 C0 0.67 0 0.34 0 0 Z " fill="#0B60BC" transform="translate(370,310)"/>
<path d="M0 0 C0.33 0 0.66 0 1 0 C1.66 2.31 2.32 4.62 3 7 C3.99 6.34 4.98 5.68 6 5 C5.80037128 8.59331694 5.21261372 9.79828955 2.5625 12.3125 C-2.09709163 14.51967498 -5.93561658 14.36031186 -11 14 C-11 13.67 -11 13.34 -11 13 C-7.535 12.505 -7.535 12.505 -4 12 C-4 11.34 -4 10.68 -4 10 C-6.31 9.67 -8.62 9.34 -11 9 C-11 8.67 -11 8.34 -11 8 C-10.37351562 7.92523438 -9.74703125 7.85046875 -9.1015625 7.7734375 C-6.59401809 7.37001553 -4.36502817 6.93390509 -2 6 C-0.30834699 3.01716843 -0.30834699 3.01716843 0 0 Z " fill="#0A5BBB" transform="translate(884,320)"/>
<path d="M0 0 C3.14640024 1.60557049 4.80321818 2.63527333 5.9609375 6.03125 C5.9815625 6.77375 6.0021875 7.51625 6.0234375 8.28125 C4.0434375 8.94125 2.0634375 9.60125 0.0234375 10.28125 C-0.3065625 8.96125 -0.6365625 7.64125 -0.9765625 6.28125 C-0.0175 6.5596875 -0.0175 6.5596875 0.9609375 6.84375 C1.981875 7.0603125 1.981875 7.0603125 3.0234375 7.28125 C3.3534375 6.95125 3.6834375 6.62125 4.0234375 6.28125 C3.0746875 5.9925 2.1259375 5.70375 1.1484375 5.40625 C-1.9765625 4.28125 -1.9765625 4.28125 -3.9765625 2.28125 C-8.26001202 1.79171291 -11.91102617 3.00578762 -15.9765625 4.28125 C-11.43282332 -0.57585051 -6.61398438 -2.40508523 0 0 Z " fill="#0E5FBC" transform="translate(601.9765625,309.71875)"/>
<path d="M0 0 C2.10494301 0.08708038 4.20902142 0.19525693 6.3125 0.3125 C8.07013672 0.39951172 8.07013672 0.39951172 9.86328125 0.48828125 C13 1 13 1 14.91796875 2.29296875 C16 4 16 4 16 8 C14.35 8.33 12.7 8.66 11 9 C10.67 7.68 10.34 6.36 10 5 C9.278125 4.855625 8.55625 4.71125 7.8125 4.5625 C5.20833333 4.04166667 2.60416667 3.52083333 0 3 C0 2.01 0 1.02 0 0 Z " fill="#126FC2" transform="translate(399,311)"/>
<path d="M0 0 C0.61875 0.639375 1.2375 1.27875 1.875 1.9375 C4.28839022 4.27990815 5.7163874 4.63515416 9 5 C9 5.33 9 5.66 9 6 C6 6 3 6 0 6 C-0.33 6.66 -0.66 7.32 -1 8 C-0.34 8.33 0.32 8.66 1 9 C0.67 9.66 0.34 10.32 0 11 C-5.78461538 6.56923077 -5.78461538 6.56923077 -6.875 3.6875 C-6.91625 3.130625 -6.9575 2.57375 -7 2 C-4.35261084 0.5393715 -3.10551666 0 0 0 Z " fill="#0A5ABA" transform="translate(590,336)"/>
<path d="M0 0 C4.455 0.99 4.455 0.99 9 2 C9.33 1.34 9.66 0.68 10 0 C10.12375 0.639375 10.2475 1.27875 10.375 1.9375 C10.58125 2.618125 10.7875 3.29875 11 4 C11.66 4.33 12.32 4.66 13 5 C11.26780072 6.73219928 8.97973192 6.21291761 6.625 6.25 C5.64789062 6.27578125 4.67078125 6.3015625 3.6640625 6.328125 C1 6 1 6 -0.8515625 4.484375 C-1.23054687 3.99453125 -1.60953125 3.5046875 -2 3 C-1.34 2.01 -0.68 1.02 0 0 Z " fill="#1370C4" transform="translate(590,340)"/>
<path d="M0 0 C7.33333333 -0.36666667 7.33333333 -0.36666667 10.5 1.375 C12 3 12 3 12 5 C9.47524538 6.26237731 7.68799534 6.09856404 4.875 6.0625 C3.96492187 6.05347656 3.05484375 6.04445313 2.1171875 6.03515625 C1.41851563 6.02355469 0.71984375 6.01195312 0 6 C0 4.02 0 2.04 0 0 Z " fill="#1674C4" transform="translate(663,309)"/>
<path d="M0 0 C2.31 0.33 4.62 0.66 7 1 C6.01 1.680625 6.01 1.680625 5 2.375 C4.01 3.179375 4.01 3.179375 3 4 C3 4.66 3 5.32 3 6 C3.66 6.33 4.32 6.66 5 7 C4.34 7 3.68 7 3 7 C2.67 8.32 2.34 9.64 2 11 C0.02 11.33 -1.96 11.66 -4 12 C-3.67 9.69 -3.34 7.38 -3 5 C-1.68 5 -0.36 5 1 5 C0.67 3.35 0.34 1.7 0 0 Z " fill="#1A75C5" transform="translate(228,310)"/>
<path d="M0 0 C2.5625 0.125 2.5625 0.125 4.5625 1.125 C4.5625 2.115 4.5625 3.105 4.5625 4.125 C3.5725 4.125 2.5825 4.125 1.5625 4.125 C1.5625 4.785 1.5625 5.445 1.5625 6.125 C-1.8125 6.25 -1.8125 6.25 -5.4375 6.125 C-6.0975 5.465 -6.7575 4.805 -7.4375 4.125 C-6.798125 3.650625 -6.15875 3.17625 -5.5 2.6875 C-2.09426568 0.10739824 -2.09426568 0.10739824 0 0 Z " fill="#186EC1" transform="translate(198.4375,341.875)"/>
<path d="M0 0 C0.33 0 0.66 0 1 0 C1 2.97 1 5.94 1 9 C3.64 9 6.28 9 9 9 C8.34 10.32 7.68 11.64 7 13 C7.99 13.66 8.98 14.32 10 15 C7.03 15 4.06 15 1 15 C1.33 14.01 1.66 13.02 2 12 C1.34 11.34 0.68 10.68 0 10 C-0.1953125 7.6171875 -0.1953125 7.6171875 -0.125 4.875 C-0.10695312 3.96492188 -0.08890625 3.05484375 -0.0703125 2.1171875 C-0.04710937 1.41851562 -0.02390625 0.71984375 0 0 Z " fill="#0251B7" transform="translate(150,316)"/>
<path d="M0 0 C4.62 0 9.24 0 14 0 C14 1.65 14 3.3 14 5 C9.38 5 4.76 5 0 5 C0.99 4.01 1.98 3.02 3 2 C2.01 1.34 1.02 0.68 0 0 Z " fill="#0356B6" transform="translate(329,326)"/>
<path d="M0 0 C2.31 0 4.62 0 7 0 C7.33 0.99 7.66 1.98 8 3 C7.01 3 6.02 3 5 3 C5 3.66 5 4.32 5 5 C5.66 5.33 6.32 5.66 7 6 C2.545 6.495 2.545 6.495 -2 7 C-2 3.89448334 -1.4606285 2.64738916 0 0 Z " fill="#1773C3" transform="translate(459,309)"/>
<path d="M0 0 C3 2 3 2 5 5 C1.68629 7.20914 0.6553979 7.22481553 -3.1875 7.125 C-4.08855469 7.10695313 -4.98960937 7.08890625 -5.91796875 7.0703125 C-6.60503906 7.04710937 -7.29210937 7.02390625 -8 7 C-7.67 5.68 -7.34 4.36 -7 3 C-2.44615385 2.63076923 -2.44615385 2.63076923 -0.1875 4.5 C0.204375 4.995 0.59625 5.49 1 6 C0.67 4.02 0.34 2.04 0 0 Z " fill="#1373C4" transform="translate(842,339)"/>
<path d="M0 0 C0.33 0.66 0.66 1.32 1 2 C-0.65 2.33 -2.3 2.66 -4 3 C-2.84826645 5.46800047 -1.95216435 7.04783565 0 9 C-1.75 8.875 -1.75 8.875 -4 8 C-6.25 4.9375 -6.25 4.9375 -8 2 C-6.18415346 -1.63169308 -3.37971234 -1.23922786 0 0 Z " fill="#135EBA" transform="translate(229,337)"/>
<path d="M0 0 C1.32 0 2.64 0 4 0 C4.33 1.98 4.66 3.96 5 6 C3.35 6.66 1.7 7.32 0 8 C-0.99 6.68 -1.98 5.36 -3 4 C-1.75 2 -1.75 2 0 0 Z " fill="#1371C2" transform="translate(159,324)"/>
<path d="M0 0 C5.61 0 11.22 0 17 0 C17 0.33 17 0.66 17 1 C14.36 1.33 11.72 1.66 9 2 C9 2.33 9 2.66 9 3 C7.02 3 5.04 3 3 3 C2.87625 3.639375 2.7525 4.27875 2.625 4.9375 C2.41875 5.618125 2.2125 6.29875 2 7 C1.01 7.495 1.01 7.495 0 8 C0 5.36 0 2.72 0 0 Z " fill="#E6ECF5" transform="translate(541,316)"/>
<path d="M0 0 C5.01286049 -0.5370922 8.18313111 -0.36929522 12.5 2.375 C15.01435189 4.41791091 15.88846848 5.41445953 16.5 8.625 C16.5 11.133083 16.35309885 13.51849976 16 16 C15.67 16 15.34 16 15 16 C14.84144531 15.32453125 14.68289063 14.6490625 14.51953125 13.953125 C13.43883777 9.82141291 12.57412939 6.68895527 9.8125 3.375 C5.95824699 1.49069853 3.26015784 1.71117574 -1 2 C-0.67 1.34 -0.34 0.68 0 0 Z " fill="#0854B6" transform="translate(663,315)"/>
<path d="M0 0 C0 1.32 0 2.64 0 4 C-1.98 4.99 -1.98 4.99 -4 6 C-4.35338623 8.96844435 -4.5417682 11.15598218 -2.88671875 13.734375 C-1.64496832 15.20348819 -0.32662082 16.60704814 1 18 C-1.49710982 17.65557106 -2.82154665 17.15296001 -4.75 15.5 C-6.63904615 11.7219077 -6.70649488 8.14021191 -6 4 C-3.07317073 0 -3.07317073 0 0 0 Z " fill="#0C57B7" transform="translate(229,311)"/>
<path d="M0 0 C2 2 2 2 2.1171875 4.2421875 C1.45707302 11.4182707 1.45707302 11.4182707 -1.0625 14.625 C-1.701875 15.07875 -2.34125 15.5325 -3 16 C-3.66 15.67 -4.32 15.34 -5 15 C-4.360625 14.195625 -3.72125 13.39125 -3.0625 12.5625 C-0.40147674 8.64148693 -0.20593653 4.63357199 0 0 Z " fill="#0C5ABA" transform="translate(848,324)"/>
<path d="M0 0 C0.33 0.99 0.66 1.98 1 3 C0.01 3.495 0.01 3.495 -1 4 C-0.34 4.66 0.32 5.32 1 6 C-1.40545638 7.20272819 -2.94996953 7.10071472 -5.625 7.0625 C-6.85089844 7.04896484 -6.85089844 7.04896484 -8.1015625 7.03515625 C-9.04128906 7.01775391 -9.04128906 7.01775391 -10 7 C-10 6.67 -10 6.34 -10 6 C-8.824375 5.87625 -8.824375 5.87625 -7.625 5.75 C-4.85250896 5.27193661 -4.85250896 5.27193661 -3.6875 2.9375 C-3.460625 2.298125 -3.23375 1.65875 -3 1 C-2.34 1 -1.68 1 -1 1 C-0.67 0.67 -0.34 0.34 0 0 Z " fill="#1674C4" transform="translate(375,339)"/>
<path d="M0 0 C0.5775 0.598125 1.155 1.19625 1.75 1.8125 C3.74107607 3.7482684 5.74472997 5.38909283 8 7 C7.67 7.66 7.34 8.32 7 9 C1.21538462 5.67692308 1.21538462 5.67692308 0.125 2.25 C0.08375 1.5075 0.0425 0.765 0 0 Z M6 0 C8.125 0.9375 8.125 0.9375 10 2 C7.92446352 2.5534764 6.15634036 3 4 3 C4 2.34 4 1.68 4 1 C4.66 0.67 5.32 0.34 6 0 Z " fill="#0A59B9" transform="translate(183,338)"/>
<path d="M0 0 C0.33 0 0.66 0 1 0 C1 6.93 1 13.86 1 21 C0.01 20.34 -0.98 19.68 -2 19 C-1.505 17.515 -1.505 17.515 -1 16 C-0.77202438 13.26710707 -0.58331813 10.54957796 -0.4375 7.8125 C-0.39431641 7.06291016 -0.35113281 6.31332031 -0.30664062 5.54101562 C-0.20077315 3.69421625 -0.0999024 1.84713166 0 0 Z " fill="#F2F6F8" transform="translate(301,310)"/>
<path d="M0 0 C2 1 4 2 6 3 C6 4.98 6 6.96 6 9 C5.34 7.68 4.68 6.36 4 5 C2.68 5.33 1.36 5.66 0 6 C0 4.02 0 2.04 0 0 Z " fill="#1872C3" transform="translate(166,331)"/>
<path d="M0 0 C-0.66 1.32 -1.32 2.64 -2 4 C-4.64 3.67 -7.28 3.34 -10 3 C-7.29536552 -0.8183075 -4.37912428 -0.24787496 0 0 Z " fill="#1174C5" transform="translate(713,312)"/>
<path d="M0 0 C0.66 0.33 1.32 0.66 2 1 C1.67 1.66 1.34 2.32 1 3 C1.99 3.66 2.98 4.32 4 5 C1.03 5 -1.94 5 -5 5 C-4 2 -4 2 -2.0625 0.75 C-1.381875 0.5025 -0.70125 0.255 0 0 Z " fill="#085EBC" transform="translate(156,326)"/>
<path d="M0 0 C3.3 0.99 6.6 1.98 10 3 C10 3.33 10 3.66 10 4 C6.7 4 3.4 4 0 4 C0 2.68 0 1.36 0 0 Z " fill="#1372C4" transform="translate(662,342)"/>
</svg>
